<svg width="114" height="28" viewBox="0 0 114 28" fill="none" xmlns="http://www.w3.org/2000/svg">
<g clip-path="url(#clip0)">
<path d="M26.9947 6.65895C26.9632 6.36854 26.7827 6.11151 26.513 5.98563L13.8567 0.0793852C13.6306 -0.0261362 13.3693 -0.0261362 13.1431 0.0793852L0.486896 5.98563C0.217213 6.11151 0.0367559 6.36849 0.00516797 6.65895C0.00448242 6.66501 0 6.7458 0 6.75023V21.094C0 21.439 0.210041 21.7493 0.530402 21.8773L13.1867 26.9398C13.2872 26.9801 13.3936 27.0002 13.5 27.0002C13.6064 27.0002 13.7128 26.9801 13.8133 26.9398L26.4696 21.8773C26.79 21.7493 27 21.439 27 21.094V6.75023C27 6.7458 26.9954 6.66496 26.9947 6.65895ZM13.5 1.77506L24.0334 6.69064L19.9774 8.31307L9.24576 3.7604L13.5 1.77506ZM7.18822 4.72059L17.7533 9.20264L13.5 10.904L2.96662 6.69064L7.18822 4.72059ZM1.6875 7.99645L12.6562 12.3839V24.9102L1.6875 20.5227V7.99645ZM14.3438 24.9103V12.3839L25.3125 7.99645V20.5227L14.3438 24.9103Z" fill="#0A143A"/>
</g>
<path d="M44.1562 18.4844H37.9922L36.8203 22H33.082L39.4336 4.9375H42.6914L49.0781 22H45.3398L44.1562 18.4844ZM38.9414 15.6367H43.207L41.0625 9.25L38.9414 15.6367ZM53.0039 9.32031L53.1094 10.7852C54.0156 9.65234 55.2305 9.08594 56.7539 9.08594C58.0977 9.08594 59.0977 9.48047 59.7539 10.2695C60.4102 11.0586 60.7461 12.2383 60.7617 13.8086V22H57.375V13.8906C57.375 13.1719 57.2188 12.6523 56.9062 12.332C56.5938 12.0039 56.0742 11.8398 55.3477 11.8398C54.3945 11.8398 53.6797 12.2461 53.2031 13.0586V22H49.8164V9.32031H53.0039ZM70.6875 22C70.5312 21.6953 70.418 21.3164 70.3477 20.8633C69.5273 21.7773 68.4609 22.2344 67.1484 22.2344C65.9062 22.2344 64.875 21.875 64.0547 21.1562C63.2422 20.4375 62.8359 19.5312 62.8359 18.4375C62.8359 17.0938 63.332 16.0625 64.3242 15.3438C65.3242 14.625 66.7656 14.2617 68.6484 14.2539H70.207V13.5273C70.207 12.9414 70.0547 12.4727 69.75 12.1211C69.4531 11.7695 68.9805 11.5938 68.332 11.5938C67.7617 11.5938 67.3125 11.7305 66.9844 12.0039C66.6641 12.2773 66.5039 12.6523 66.5039 13.1289H63.1172C63.1172 12.3945 63.3438 11.7148 63.7969 11.0898C64.25 10.4648 64.8906 9.97656 65.7188 9.625C66.5469 9.26562 67.4766 9.08594 68.5078 9.08594C70.0703 9.08594 71.3086 9.48047 72.2227 10.2695C73.1445 11.0508 73.6055 12.1523 73.6055 13.5742V19.0703C73.6133 20.2734 73.7812 21.1836 74.1094 21.8008V22H70.6875ZM67.8867 19.6445C68.3867 19.6445 68.8477 19.5352 69.2695 19.3164C69.6914 19.0898 70.0039 18.7891 70.207 18.4141V16.2344H68.9414C67.2461 16.2344 66.3438 16.8203 66.2344 17.9922L66.2227 18.1914C66.2227 18.6133 66.3711 18.9609 66.668 19.2344C66.9648 19.5078 67.3711 19.6445 67.8867 19.6445ZM80.0977 19.2695H86.2969V22H75.7734V19.9375L81.7383 12.0625H75.9492V9.32031H86.1094V11.3242L80.0977 19.2695ZM87.7031 15.543C87.7031 14.2852 87.9453 13.1641 88.4297 12.1797C88.9141 11.1953 89.6094 10.4336 90.5156 9.89453C91.4297 9.35547 92.4883 9.08594 93.6914 9.08594C95.4023 9.08594 96.7969 9.60938 97.875 10.6562C98.9609 11.7031 99.5664 13.125 99.6914 14.9219L99.7148 15.7891C99.7148 17.7344 99.1719 19.2969 98.0859 20.4766C97 21.6484 95.543 22.2344 93.7148 22.2344C91.8867 22.2344 90.4258 21.6484 89.332 20.4766C88.2461 19.3047 87.7031 17.7109 87.7031 15.6953V15.543ZM91.0898 15.7891C91.0898 16.9922 91.3164 17.9141 91.7695 18.5547C92.2227 19.1875 92.8711 19.5039 93.7148 19.5039C94.5352 19.5039 95.1758 19.1914 95.6367 18.5664C96.0977 17.9336 96.3281 16.9258 96.3281 15.543C96.3281 14.3633 96.0977 13.4492 95.6367 12.8008C95.1758 12.1523 94.5273 11.8281 93.6914 11.8281C92.8633 11.8281 92.2227 12.1523 91.7695 12.8008C91.3164 13.4414 91.0898 14.4375 91.0898 15.7891ZM104.918 9.32031L105.023 10.7852C105.93 9.65234 107.145 9.08594 108.668 9.08594C110.012 9.08594 111.012 9.48047 111.668 10.2695C112.324 11.0586 112.66 12.2383 112.676 13.8086V22H109.289V13.8906C109.289 13.1719 109.133 12.6523 108.82 12.332C108.508 12.0039 107.988 11.8398 107.262 11.8398C106.309 11.8398 105.594 12.2461 105.117 13.0586V22H101.73V9.32031H104.918Z" fill="#0A143A"/>
<defs>
<clipPath id="clip0">
<rect width="27" height="27" fill="white"/>
</clipPath>
</defs>
</svg>
